<?xml version="1.0" standalone="no"?>
<svg viewBox="0 0 200 200" xmlns="http://www.w3.org/2000/svg">
  <path fill="#304352" d="M43.8,-70C52.9,-62.4,53.5,-43.6,60.8,-27.7C68.1,-11.9,82.1,1,84.8,15.2C87.4,29.5,78.8,45.1,66.9,56.8C55,68.5,39.8,76.3,25.6,74.9C11.3,73.5,-2,63,-17.9,59.1C-33.7,55.2,-51.9,58,-65.8,51.6C-79.6,45.3,-89,29.7,-84.6,16.2C-80.3,2.7,-62.2,-8.7,-49.5,-16.8C-36.8,-24.9,-29.5,-29.7,-22.1,-38C-14.7,-46.3,-7.4,-58.1,5,-65.9C17.4,-73.8,34.8,-77.5,43.8,-70Z" transform="translate(100 100)" />
</svg>
